<?xml version="1.0" encoding="UTF-8" standalone="no"?>
<!-- Created with Inkscape (http://www.inkscape.org/) -->

<svg
   width="210mm"
   height="297mm"
   viewBox="0 0 210 297"
   version="1.1"
   id="svg1"
   xml:space="preserve"
   inkscape:version="1.4.2 (ebf0e94, 2025-05-08)"
   sodipodi:docname="Coração - 32 - bigres_v3.svg"
   xmlns:inkscape="http://www.inkscape.org/namespaces/inkscape"
   xmlns:sodipodi="http://sodipodi.sourceforge.net/DTD/sodipodi-0.dtd"
   xmlns:xlink="http://www.w3.org/1999/xlink"
   xmlns="http://www.w3.org/2000/svg"
   xmlns:svg="http://www.w3.org/2000/svg"><sodipodi:namedview
     id="namedview1"
     pagecolor="#ffffff"
     bordercolor="#000000"
     borderopacity="0.25"
     inkscape:showpageshadow="2"
     inkscape:pageopacity="0.0"
     inkscape:pagecheckerboard="0"
     inkscape:deskcolor="#d1d1d1"
     inkscape:document-units="mm"
     showgrid="false"
     inkscape:zoom="11.313708"
     inkscape:cx="361.8619"
     inkscape:cy="688.85459"
     inkscape:window-width="1920"
     inkscape:window-height="1017"
     inkscape:window-x="1912"
     inkscape:window-y="-8"
     inkscape:window-maximized="1"
     inkscape:current-layer="layer1" /><defs
     id="defs1" /><g
     inkscape:label="Layer 1"
     inkscape:groupmode="layer"
     id="layer1"><path
       id="path7"
       style="fill:#ffffff;stroke:#1a1a1a;vector-effect:non-scaling-stroke;-inkscape-stroke:hairline;stroke-width:0.26458333;stroke-dasharray:none"
       sodipodi:type="inkscape:offset"
       inkscape:radius="0.51484483"
       inkscape:original="M 93.373047 182.5625 L 92.724609 183.21289 L 92.074219 183.86133 L 92.074219 184.69727 L 92.074219 185.5332 L 94.121094 187.63477 L 96.166016 189.73828 L 98.220703 187.64062 L 100.27734 185.54297 L 100.27734 184.91016 L 100.27734 184.2793 L 99.341797 183.41992 L 98.40625 182.5625 L 97.705078 182.5625 L 97.003906 182.5625 L 96.435547 183.0957 L 95.869141 183.62891 L 95.386719 183.0957 L 94.904297 182.5625 L 94.138672 182.5625 L 93.373047 182.5625 z "
       d="m 93.373047,182.04687 a 0.51489632,0.51489632 0 0 0 -0.365235,0.15235 l -0.646484,0.65039 -0.650391,0.64648 a 0.51489632,0.51489632 0 0 0 -0.152343,0.36524 v 0.83594 0.83593 a 0.51489632,0.51489632 0 0 0 0.146484,0.35938 l 2.046875,2.10156 2.044922,2.10352 a 0.51489632,0.51489632 0 0 0 0.736328,0 L 98.587891,188 l 2.056639,-2.0957 a 0.51489632,0.51489632 0 0 0 0.14844,-0.36133 v -0.63281 -0.63086 a 0.51489632,0.51489632 0 0 0 -0.16797,-0.37891 l -0.935547,-0.85937 -0.935547,-0.85743 a 0.51489632,0.51489632 0 0 0 -0.347656,-0.13672 h -0.701172 -0.701172 a 0.51489632,0.51489632 0 0 0 -0.351562,0.14063 l -0.56836,0.5332 a 0.51489632,0.51489632 0 0 0 -0.002,0 l -0.183594,0.17383 -0.130859,-0.14453 -0.482422,-0.5332 a 0.51489632,0.51489632 0 0 0 -0.380859,-0.16993 h -0.765625 z" /><image
       width="8.4666662"
       height="8.4666662"
       preserveAspectRatio="none"
       xlink:href="Cora%C3%A7%C3%A3o%20-%2032%20-%20bigres_v3.png"
       id="image1"
       x="91.810417"
       y="181.50417"
       style="image-rendering:pixelated" /></g></svg>
